 <svg  version="1.0" xmlns="http://www.w3.org/2000/svg"  width="120.000000pt" height="69.000000pt" viewBox="0 0 68.000000 69.000000"  preserveAspectRatio="xMidYMid meet">  <g transform="translate(0.000000,69.000000) scale(0.100000,-0.100000)" fill="#68d98e" stroke="none"> <path d="M28 673 c-8 -10 -19 -25 -23 -33 -8 -13 -7 -13 10 0 40 32 55 50 42 50 -8 0 -21 -8 -29 -17z"/> <path d="M655 670 c10 -11 20 -18 23 -15 7 6 -18 35 -31 35 -5 0 -2 -9 8 -20z"/> <path d="M318 549 c-15 -24 -78 -59 -106 -59 -36 0 -69 -59 -42 -75 6 -3 10 -28 10 -55 0 -27 -4 -52 -10 -55 -17 -11 -11 -41 14 -64 14 -13 29 -20 35 -17 17 11 75 -19 90 -47 10 -20 22 -27 43 -27 15 0 28 4 28 8 0 5 14 23 32 41 26 26 38 32 60 27 39 -8 73 25 63 62 -16 66 -17 86 -5 123 12 35 11 41 -5 59 -10 11 -27 20 -37 20 -27 0 -69 23 -97 54 -30 31 -56 33 -73 5z m59 -18 c6 -24 81 -66 111 -62 27 3 40 -24 24 -50 -15 -24 -15 -94 0 -118 16 -26 3 -53 -24 -50 -32 4 -104 -36 -111 -61 -7 -27 -47 -27 -54 0 -7 25 -79 65 -111 61 -27 -3 -40 24 -24 50 15 24 15 94 0 118 -16 26 -3 53 24 50 31 -4 105 36 113 61 8 25 45 26 52 1z"/> <path d="M283 473 c-24 -14 -43 -28 -43 -32 0 -4 15 -16 34 -26 19 -11 32 -23 30 -27 -3 -5 -21 0 -40 12 -20 11 -37 20 -40 20 -10 0 -3 -100 10 -125 12 -22 84 -75 102 -75 2 0 4 20 4 45 0 25 5 45 10 45 6 0 10 -20 10 -45 l0 -45 50 25 c28 14 50 32 50 40 0 8 5 15 10 15 6 0 10 27 10 60 0 33 -3 60 -7 60 -5 0 -19 -9 -33 -20 -28 -22 -40 -25 -40 -10 0 5 14 16 30 25 17 9 30 19 30 24 0 15 -72 53 -105 55 -17 2 -48 -8 -72 -21z m133 -24 c13 -10 12 -13 -4 -25 -20 -13 -39 -14 -59 -1 -8 5 -13 4 -13 -2 0 -16 -32 -13 -54 4 -22 17 -21 20 14 34 30 13 95 7 116 -10z m-36 -64 c26 -32 -13 -81 -47 -59 -23 14 -28 41 -13 59 16 19 44 19 60 0z m-85 -45 c14 -22 25 -51 25 -64 0 -22 -2 -23 -25 -13 -28 13 -55 62 -52 95 2 34 24 26 52 -18z m170 18 c-1 -13 -3 -28 -4 -34 -2 -18 -49 -64 -66 -64 -8 0 -15 8 -15 17 0 27 34 92 50 96 31 9 37 6 35 -15z"/> <path d="M11 51 c14 -23 59 -59 59 -49 0 7 -32 41 -55 58 -19 15 -19 14 -4 -9z"/> <path d="M652 30 c-12 -12 -22 -23 -22 -26 0 -7 38 15 45 27 13 20 -1 19 -23 -1z"/> </g> </svg> 