<?xml version="1.0" standalone="no"?>
<!DOCTYPE svg PUBLIC "-//W3C//DTD SVG 20010904//EN"
 "http://www.w3.org/TR/2001/REC-SVG-20010904/DTD/svg10.dtd">
<svg version="1.0" xmlns="http://www.w3.org/2000/svg"
 width="50.000000pt" height="25.000000pt" viewBox="0 0 300.000000 300.000000"
 preserveAspectRatio="xMidYMid meet">
<metadata>
Created by potrace 1.10, written by Peter Selinger 2001-2011
</metadata>
<g transform="translate(0.000000,300.000000) scale(0.050000,-0.050000)"
fill="#ffffff" stroke="none">
<path d="M810 4121 c-22 -9 -57 -35 -78 -58 -20 -23 -45 -37 -55 -31 -10 6
-16 4 -13 -6 2 -9 -7 -37 -22 -63 -38 -70 -14 -157 94 -336 67 -111 97 -184
101 -246 21 -285 226 -431 409 -291 52 39 94 64 94 55 0 -20 124 -96 145 -90
8 3 15 -5 15 -17 0 -12 14 -17 30 -11 17 7 30 2 30 -11 0 -12 6 -17 13 -10 7
7 30 3 52 -9 22 -11 35 -13 28 -2 -6 10 1 18 17 18 15 0 27 -5 26 -11 -8 -43
39 -143 96 -202 138 -146 71 -225 -174 -207 -94 7 -261 6 -370 -3 l-198 -14
-95 -95 c-129 -129 -129 -184 2 -307 121 -112 176 -123 556 -106 152 7 309 11
347 10 351 -14 807 2 851 31 60 39 98 39 156 1 46 -30 132 -36 513 -32 105 1
249 2 320 2 81 1 154 13 192 34 35 18 75 28 90 22 16 -6 36 -11 46 -12 10 0
23 -9 30 -20 6 -11 45 -36 85 -57 40 -20 115 -67 166 -104 243 -174 634 -30
712 262 22 80 15 539 -10 645 -11 46 -4 70 27 104 113 120 122 155 122 492 l0
315 -92 90 c-51 49 -103 89 -115 87 -76 -9 -214 5 -204 21 6 10 2 24 -9 31
-12 7 -19 1 -15 -14 3 -18 -14 -24 -59 -20 -36 4 -108 -13 -160 -36 -111 -50
-166 -64 -166 -43 0 38 -135 77 -240 69 -182 -13 -207 -17 -284 -43 -63 -22
-83 -20 -136 7 -119 61 -240 61 -379 -1 -107 -48 -131 -53 -166 -31 -22 14
-73 44 -113 66 -39 21 -105 66 -146 98 -148 117 -186 116 -346 -12 -179 -144
-355 -219 -298 -127 6 10 4 16 -6 14 -9 -2 -42 4 -73 12 -35 10 -86 6 -135
-10 -68 -22 -94 -21 -185 8 -59 18 -130 33 -158 33 -29 0 -98 35 -158 81 -147
110 -175 114 -302 42 l-106 -61 -100 59 c-104 61 -133 67 -199 40z m503 -398
c-131 -215 -133 -220 -133 -360 l0 -143 -70 0 -70 0 0 137 c0 134 -2 140 -139
360 l-138 223 87 0 88 0 86 -158 85 -157 83 152 c79 145 178 213 246 169 4 -3
-52 -103 -125 -223z m1467 86 c0 -120 3 -129 31 -100 154 153 301 19 314 -284
l9 -205 -72 0 -72 0 7 158 c8 176 -13 235 -88 254 -97 24 -129 -34 -129 -235
l0 -177 -70 0 -70 0 0 360 0 360 70 0 70 0 0 -131z m-992 -77 c219 -91 213
-408 -11 -500 -334 -136 -555 301 -247 491 71 44 166 47 258 9z m1806 7 c273
-104 213 -503 -81 -533 -158 -16 -313 119 -313 272 0 201 200 334 394 261z
m645 -8 c76 -40 101 -122 101 -334 l0 -177 -70 0 -70 0 0 173 c0 187 -26 247
-107 247 -88 0 -113 -54 -113 -243 l0 -177 -70 0 -70 0 0 260 0 260 70 0 c39
0 70 -9 70 -21 0 -12 23 -8 55 10 71 38 133 38 204 2z m548 -12 c44 -35 53
-37 53 -10 0 22 20 31 70 31 l70 0 0 -261 c0 -381 -45 -461 -266 -475 -132 -8
-256 47 -270 119 -9 47 91 68 135 28 85 -77 261 -11 261 96 l0 48 -83 -41
c-273 -135 -481 310 -220 472 74 46 187 43 250 -7z m-2617 -161 c0 -192 22
-238 114 -238 87 0 119 71 112 251 l-6 169 70 0 70 0 0 -260 0 -260 -65 0
c-47 0 -65 9 -65 33 0 29 -5 29 -42 -5 -64 -58 -204 -52 -266 12 -45 46 -50
68 -56 265 l-6 215 70 0 70 0 0 -182z m737 -488 c22 -22 34 -24 44 -8 10 16
20 13 33 -9 17 -30 132 -30 181 0 73 45 121 -9 62 -69 -15 -15 -27 -21 -27
-14 0 7 -20 -2 -44 -19 -54 -37 -108 -40 -130 -6 -21 33 -98 75 -138 75 -20 0
-28 11 -21 29 6 15 0 33 -13 38 -18 7 -18 10 0 11 13 1 37 -12 53 -28z m873
-15 c0 -9 9 -12 20 -5 12 7 14 -2 6 -24 -12 -31 -9 -32 18 -10 25 20 36 20 47
2 9 -15 7 -19 -7 -11 -11 8 -27 4 -34 -7 -7 -12 -30 -16 -51 -10 -20 7 -64 -2
-97 -19 -54 -28 -62 -28 -94 4 -33 33 -30 35 49 51 46 9 83 23 83 32 0 8 14
15 30 15 17 0 30 -8 30 -18z m356 1 c13 -13 24 -18 24 -11 0 7 23 -8 50 -33
28 -26 50 -52 50 -59 0 -25 -55 -13 -80 17 -15 18 -42 25 -70 18 -26 -6 -52
-1 -61 13 -9 16 -7 20 7 12 11 -8 27 -4 34 7 7 12 6 20 -4 18 -49 -8 -73 6
-36 22 55 24 59 23 86 -4z m-1696 -122 c0 -51 -38 -118 -170 -298 -207 -282
-208 -263 10 -246 l180 14 0 -72 0 -72 -280 0 -280 0 0 55 c0 38 56 129 179
295 99 132 180 245 180 250 1 6 -80 7 -179 4 l-180 -7 0 72 0 71 270 0 270 0
0 -66z m240 -65 l0 -131 44 31 c175 122 304 4 313 -287 l7 -222 -72 0 -71 0
-5 194 c-6 187 -8 196 -59 224 -111 62 -157 -5 -157 -228 l0 -190 -70 0 -70 0
0 370 0 370 70 0 70 0 0 -131z m1992 -111 c22 -18 28 -16 28 10 0 23 19 32 70
32 l70 0 0 -271 c0 -331 -20 -393 -144 -449 -138 -63 -277 -41 -363 56 -67 75
43 128 126 61 95 -77 240 -18 241 99 0 43 -2 44 -59 15 -219 -114 -439 128
-329 360 64 136 248 180 360 87z m-1130 -16 c57 -58 58 -63 58 -270 l0 -212
-60 0 c-40 0 -60 10 -60 30 0 17 -8 30 -18 30 -9 0 -28 -13 -42 -30 -38 -45
-184 -39 -247 11 -128 101 -36 259 158 275 118 10 153 41 109 94 -34 41 -92
38 -137 -7 -41 -41 -163 -37 -163 5 0 131 291 184 402 74z m298 27 c0 -28 4
-28 44 0 25 17 81 31 125 30 154 -1 191 -67 191 -338 l0 -201 -70 0 -70 0 0
190 c0 180 -2 191 -50 222 -114 74 -183 -43 -164 -274 l12 -138 -74 0 -74 0 0
270 0 270 65 0 c45 0 65 -9 65 -31z m-2060 -449 l0 -60 -380 0 -380 0 0 60 0
60 380 0 380 0 0 -60z"/>
<path d="M1600 3614 c-161 -82 -47 -343 120 -274 118 49 123 225 8 277 -62 28
-66 28 -128 -3z"/>
<path d="M3389 3591 c-119 -119 0 -314 153 -250 116 48 120 224 6 276 -73 34
-104 29 -159 -26z"/>
<path d="M4600 3600 c-60 -60 -53 -167 14 -220 63 -49 137 -41 191 23 112 132
-83 319 -205 197z"/>
<path d="M4520 2686 c-154 -56 -122 -286 40 -286 168 0 194 243 30 286 -22 6
-53 6 -70 0z"/>
<path d="M3374 2501 c-101 -20 -150 -67 -115 -110 33 -40 129 -40 170 0 24 25
48 137 26 127 -3 -2 -39 -9 -81 -17z"/>
</g>
</svg>
